<svg id="Layer_1" enable-background="new 0 0 511.619 511.619" height="512" viewBox="0 0 511.619 511.619" width="512" xmlns="http://www.w3.org/2000/svg"><path d="m449.661 382.212 28.393 11.544c13.533 5.507 29.326-4.644 29.461-19.368v-106.274c.237-25.528-20.626-47.233-46.307-47.233h-108.341c-25.806 0-46.801 20.995-46.801 46.801v56.534c0 25.806 20.995 46.801 46.801 46.801 32.998-.001 65.467-1.54 96.794 11.195zm-128.594-57.997v-56.534c0-17.535 14.266-31.801 31.801-31.801h108.341c17.534 0 31.467 14.8 31.307 32.164v106.274c-.038 4.141-4.852 7.15-8.812 5.543l-28.394-11.544c-33.197-13.498-67.444-12.302-102.443-12.302-17.535.001-31.8-14.265-31.8-31.8z"/><path d="m436.987 330.677c3.222 2.417 8.127 1.663 10.5-1.502 2.484-3.314 1.812-8.016-1.502-10.5l-26.688-20.007 26.688-20.007c3.314-2.484 3.987-7.186 1.502-10.5-2.484-3.313-7.186-3.985-10.5-1.502l-30.195 22.635-30.195-22.635c-3.315-2.485-8.016-1.812-10.5 1.502s-1.812 8.016 1.502 10.5l26.688 20.007-26.687 20.007c-3.314 2.484-3.987 7.186-1.502 10.5 2.374 3.166 7.276 3.918 10.5 1.502l30.195-22.635z"/><path d="m122.199 170.828c24.128 0 44.511-19.805 44.511-44.07v-82.225c0-24.555-19.978-44.533-44.534-44.533h-53.272c-24.557 0-44.534 19.978-44.534 44.533v17.382c0 28.99-10.724 54.304-21.397 80.554-5.335 13.122 4.543 28.228 18.652 28.357h100.139c.145.001.29.002.435.002zm-104.719-17.4c-1.078-1.617-1.306-3.602-.612-5.309 11.422-28.092 22.502-55.177 22.502-86.204v-17.382c0-16.284 13.248-29.533 29.534-29.533h53.272c16.285 0 29.534 13.249 29.534 29.533v82.225c0 16.296-13.75 29.207-29.876 29.068h-100.14c-2.376-.021-3.738-1.684-4.214-2.398z"/><path d="m74.368 448.449c-3.235-2.689-8.202-2.129-10.755 1.216-11.725 15.355-16.322 31.428-12.611 44.096 5.395 18.42 29.921 25.479 40.442 7.148 7.403-12.895 4.994-34.118-17.076-52.46zm4.068 44.992c-3.786 6.602-11.34 1.901-13.038-3.897-2.065-7.051.962-16.024 5.456-23.771 9.817 10.862 11.095 21.549 7.582 27.668z"/><path d="m277.687 400.385c-7.152-12.877-18.314-28.949-33.594-39.599 5.656-12.779 8.812-26.902 8.812-41.752 0-23.218-7.701-44.66-20.656-61.95 2.246-2.147 5.307-3.879 8.315-4.587 6.383-1.499 11.752-5.76 14.731-11.689 3.046-6.063 3.251-13.096.564-19.298-5.379-12.412-13.916-22.919-24.688-30.384-18.685-12.948-43.553-16.141-64.903-8.328-18.521 6.778-32.704 19.464-40.176 35.336-45.939 10.584-80.304 51.794-80.304 100.9 0 7.486.815 14.783 2.332 21.822-19.906 2.091-31.09 25.383-20.216 42.26 7.897 12.263 17.073 23.533 27.272 33.499 14.594 14.26 30.325 24.883 46.599 31.697 1.3 7.598 7.916 13.406 15.879 13.406h11.459c-.865 9.727-.395 18.734 5.829 26.762 5.661 7.302 14.618 11.686 23.859 11.686h110.392c17.796 0 32.1-16 30.06-33.696-2.517-21.856-10.379-45.943-21.566-66.085zm-141.839-163.636c3.003-18.16 15.97-32.69 35.577-39.866 16.845-6.162 36.465-3.644 51.205 6.57 8.471 5.87 15.203 14.177 19.468 24.021 1.841 4.246-.618 9.4-4.962 10.42-16.925 3.977-22.577 19.743-33.04 31.48-11.224 12.592-31.162 16.603-46.379 9.326-15.219-7.274-24.62-25.31-21.869-41.951zm-14.923-1.576c-3.335 22.736 9.571 47.141 30.321 57.061 26.638 12.733 55.794.41 71.446-22.72 9.588 14.145 15.214 31.181 15.214 49.52 0 12.238-2.505 23.899-7.013 34.511-13.632-5.529-34.577-8.015-58.317 10.285-5.549 4.277-10.353 9.079-14.521 14.156-.929-.062-40.398-.104-40.398-.104-5.978 0-11.196 3.277-13.981 8.122-11.521-9.043-21.562-20.385-29.495-32.696-2.535-3.935-5.914-7.005-9.747-9.131-2.366-7.974-3.645-16.411-3.645-25.142 0-38.893 25.207-71.992 60.136-83.862zm-80.409 139.82c-3.696-5.739-1.988-13.62 3.747-17.31 5.732-3.687 13.617-1.982 17.309 3.748 4.102 6.367 18.504 27.155 39.958 41.49v28.722c-25.209-12.394-45.915-33.207-61.014-56.65zm76.013 70.596v-51.581c0-.621.506-1.127 1.127-1.127h37.591c14.843 0 26.918 12.075 26.918 26.918s-12.075 26.918-26.918 26.918h-37.591c-.621 0-1.127-.506-1.127-1.128zm164.065 34.468c-2.936 3.294-6.984 5.108-11.397 5.108h-110.393c-5.249 0-10.162-2.764-12.937-7.212-3.131-5.019-2.208-10.652-1.688-16.236h11.069c23.114 0 41.918-18.805 41.918-41.918 0-16.295-9.352-30.437-22.965-37.37 13.495-13.799 32.714-22.737 51.632-14.75 30.474 12.871 54.104 62.193 58.522 100.509.503 4.368-.833 8.583-3.761 11.869z"/><path d="m499.355 436.527c-32.331 2.868-71.159-20.555-79.789-26.983-12.711-9.473-30.758-6.838-40.229 5.87-4.589 6.157-6.506 13.733-5.397 21.332s5.11 14.311 11.268 18.899c32.407 24.151 73.802 40.84 114.788 36.783 3.784-.375 6.689-3.522 6.76-7.324l.761-40.967c-.458-4.962-3.179-7.499-8.162-7.61zm-7.469 41.418c-35.13 1.258-69.973-13.651-97.714-34.327-14.309-10.662 2.372-32.526 16.433-22.046 10.902 8.122 47.507 29.552 81.768 30.176z"/><path d="m489.226 121.838v-65.144c.176-35.368-21.102-56.337-56.248-56.534-5.691-.074-52.545-.128-139.453-.16-31.241 0-56.658 25.416-56.658 56.657v70.714c0 31.241 25.416 56.657 56.658 56.657 0 0 48.589-.002 94.05-.029 4.142-.003 7.498-3.362 7.496-7.505-.002-4.141-3.36-7.495-7.5-7.495-.001 0-.003 0-.004 0-45.456.027-94.041.029-94.042.029-22.97 0-41.658-18.688-41.658-41.657v-70.714c0-22.97 18.687-41.657 41.655-41.657 46.617.018 135.451.069 139.156.146 27.165 1.06 41.689 13.347 41.549 41.512v71.052c0 3.686 2.678 6.825 6.317 7.406 14.304 2.284 14.745 13.537 14.539 16.932-.675 11.132-8.99 16.5-16.427 16.777-1.165.039-12.703.097-61.059.146-4.142.004-7.497 3.365-7.492 7.508.004 4.14 3.361 7.492 7.5 7.492h.008c52.918-.054 60.5-.114 61.599-.155 19.064-.711 29.947-16.063 30.844-30.86.749-12.381-5.507-25.979-20.83-31.118z"/><path d="m392.723 67.426c1.124-11.999-5.079-24.205-15.434-30.373-10.354-6.167-24.041-5.807-34.057.895s-15.569 19.217-13.818 31.141c.602 4.098 4.413 6.939 8.51 6.33 4.098-.602 6.933-4.412 6.331-8.51-.913-6.217 2.097-13 7.319-16.494 5.223-3.496 12.641-3.689 18.039-.475 5.399 3.216 8.761 9.832 8.175 16.088-.72 7.688-8.21 17.018-20.673 19.166-3.598.619-6.227 3.74-6.227 7.391l.009 14.21c0 4.143 3.358 7.5 7.5 7.5s7.5-3.357 7.5-7.5l-.005-8.354c16.23-5.268 25.7-18.925 26.831-31.015z"/><path d="m358.77 128.512c-4.142 0-7.5 3.357-7.5 7.5v4.334c0 4.143 3.358 7.5 7.5 7.5s7.5-3.357 7.5-7.5v-4.334c0-4.143-3.358-7.5-7.5-7.5z"/><path d="m93.217 104.676c4.142 0 7.5-3.357 7.5-7.5l-.009-53.075c0-4.143-3.358-7.5-7.5-7.5s-7.5 3.357-7.5 7.5l.009 53.075c0 4.142 3.358 7.5 7.5 7.5z"/><path d="m93.589 118.894c-4.142 0-7.5 3.357-7.5 7.5v4.334c0 4.143 3.358 7.5 7.5 7.5s7.5-3.357 7.5-7.5v-4.334c0-4.143-3.358-7.5-7.5-7.5z"/></svg>