<?xml version="1.0" encoding="iso-8859-1"?>
<!-- Generator: Adobe Illustrator 19.0.0, SVG Export Plug-In . SVG Version: 6.00 Build 0)  -->
<svg version="1.1" id="Capa_1" xmlns="http://www.w3.org/2000/svg" xmlns:xlink="http://www.w3.org/1999/xlink" x="0px" y="0px"
	 viewBox="0 0 197.973 197.973" style="enable-background:new 0 0 197.973 197.973;" xml:space="preserve">
<g>
	<g>
		<path d="M149.113,44.373H48.626c-1.884,0-3.413,1.529-3.413,3.413s1.529,3.413,3.413,3.413h100.487
			c1.886,0,3.413-1.529,3.413-3.413S150.997,44.373,149.113,44.373z"/>
	</g>
</g>
<g>
	<g>
		<path d="M177.493,175.645c-1.884,0-3.413,1.529-3.413,3.413c0,6.665-5.424,12.088-12.088,12.088H35.982
			c-6.665,0-12.088-5.424-12.088-12.088c0-1.884-1.529-3.413-3.413-3.413s-3.413,1.529-3.413,3.413
			c0,10.429,8.486,18.915,18.915,18.915h126.01c10.429,0,18.915-8.486,18.915-18.915
			C180.907,177.174,179.378,175.645,177.493,175.645z"/>
	</g>
</g>
<g>
	<g>
		<path d="M34.133,0c-9.411,0-17.067,7.656-17.067,17.067v163.84c0,1.884,1.529,3.413,3.413,3.413s3.413-1.529,3.413-3.413
			c0-5.647,4.593-10.24,10.24-10.24s10.24,4.593,10.24,10.24c0,1.884,1.529,3.413,3.413,3.413s3.413-1.529,3.413-3.413V17.067
			C51.2,7.656,43.544,0,34.133,0z M44.373,167.262c-2.855-2.147-6.402-3.422-10.24-3.422s-7.385,1.275-10.24,3.422V17.067
			c0-5.647,4.593-10.24,10.24-10.24s10.24,4.593,10.24,10.24V167.262z"/>
	</g>
</g>
<g>
	<g>
		<path d="M163.84,0c-9.411,0-17.067,7.656-17.067,17.067v163.84c0,1.884,1.529,3.413,3.413,3.413s3.413-1.529,3.413-3.413
			c0-5.647,4.593-10.24,10.24-10.24c5.108,0,9.47,3.808,10.148,8.859c0.061,0.456,0.092,0.918,0.092,1.381
			c0,1.884,1.529,3.413,3.413,3.413c1.884,0,3.413-1.529,3.413-3.413V17.067C180.907,7.656,173.251,0,163.84,0z M174.08,167.272
			c-2.874-2.161-6.432-3.432-10.24-3.432c-3.838,0-7.385,1.275-10.24,3.422V17.067c0-5.647,4.593-10.24,10.24-10.24
			c5.647,0,10.24,4.593,10.24,10.24V167.272z"/>
	</g>
</g>
<g>
	<g>
		<path d="M80.92,76.093l-10.24-10.24c-1.333-1.333-3.494-1.333-4.826,0c-1.333,1.333-1.333,3.494,0,4.826l10.24,10.24
			c0.667,0.667,1.539,1,2.413,1c0.874,0,1.746-0.333,2.413-1C82.253,79.587,82.253,77.426,80.92,76.093z"/>
	</g>
</g>
<g>
	<g>
		<path d="M80.92,65.853c-1.333-1.333-3.494-1.333-4.826,0l-10.24,10.24c-1.333,1.333-1.333,3.494,0,4.826
			c0.667,0.667,1.539,1,2.413,1c0.874,0,1.746-0.333,2.413-1l10.24-10.24C82.253,69.347,82.253,67.186,80.92,65.853z"/>
	</g>
</g>
<g>
	<g>
		<path d="M128.707,161.427l-10.24-10.24c-1.333-1.333-3.494-1.333-4.826,0c-1.333,1.333-1.333,3.494,0,4.826l10.24,10.24
			c0.667,0.667,1.539,1,2.413,1c0.874,0,1.746-0.333,2.413-1C130.039,164.92,130.039,162.76,128.707,161.427z"/>
	</g>
</g>
<g>
	<g>
		<path d="M128.707,151.187c-1.333-1.333-3.494-1.333-4.826,0l-10.24,10.24c-1.333,1.333-1.333,3.494,0,4.826
			c0.667,0.667,1.539,1,2.413,1c0.874,0,1.746-0.333,2.413-1l10.24-10.24C130.039,154.68,130.039,152.52,128.707,151.187z"/>
	</g>
</g>
<g>
	<g>
		<g>
			<path d="M102.402,153.6c-0.061,0-6.089-0.007-13.404-0.635c-1.848-0.2-3.531,1.227-3.692,3.108
				c-0.162,1.879,1.229,3.531,3.108,3.692c7.603,0.654,13.73,0.662,13.986,0.662c1.884,0,3.415-1.529,3.415-3.413
				S104.286,153.6,102.402,153.6z"/>
			<path d="M76.343,127.343c-3.306,1.729-6.711,3.9-10.126,6.461c-0.66,0.495-1.27,0.978-1.835,1.451
				c-1.449,1.207-1.642,3.359-0.433,4.806c0.674,0.811,1.645,1.227,2.621,1.227c0.771,0,1.546-0.259,2.185-0.794
				c0.481-0.401,1.002-0.812,1.558-1.231c3.12-2.338,6.212-4.313,9.192-5.871c1.671-0.872,2.318-2.935,1.444-4.606
				C80.075,127.118,78.013,126.467,76.343,127.343z"/>
			<path d="M75.87,151.129c-7.221-1.538-9.767-3.333-10.643-4.265c-1.29-1.377-3.449-1.442-4.823-0.154
				c-1.376,1.29-1.444,3.449-0.154,4.823c2.562,2.731,7.204,4.782,14.196,6.272c0.241,0.051,0.48,0.075,0.715,0.075
				c1.577,0,2.994-1.099,3.335-2.702C78.891,153.335,77.713,151.521,75.87,151.129z"/>
			<path d="M102.977,120.187c-1.591,0.56-3.62,0.809-5.972,1.099c-2.057,0.256-4.39,0.543-7.02,1.097
				c-1.843,0.389-3.024,2.2-2.635,4.045c0.34,1.606,1.756,2.708,3.337,2.708c0.232,0,0.469-0.024,0.708-0.073
				c2.345-0.495,4.429-0.751,6.444-1c2.63-0.326,5.113-0.631,7.397-1.432c1.778-0.625,2.715-2.574,2.092-4.352
				C106.704,120.501,104.754,119.566,102.977,120.187z"/>
			<path d="M115.437,98.794c-0.64-1.773-2.596-2.691-4.369-2.055c-1.773,0.638-2.693,2.596-2.055,4.369
				c0.741,2.057,1.116,4.064,1.116,5.961c0,1.529-0.246,3.04-0.729,4.49l-0.207,0.604c-0.628,1.777,0.304,3.727,2.08,4.357
				c0.377,0.133,0.759,0.196,1.138,0.196c1.405,0,2.722-0.876,3.219-2.277l0.247-0.722c0.715-2.149,1.079-4.386,1.079-6.649
				C116.958,104.378,116.446,101.596,115.437,98.794z"/>
			<path d="M97.48,76.223c-1.459-1.193-3.608-0.98-4.803,0.48c-1.193,1.457-0.978,3.61,0.48,4.803
				c3.659,2.995,6.815,6.043,9.378,9.062c0.674,0.795,1.637,1.203,2.603,1.203c0.782,0,1.565-0.266,2.21-0.812
				c1.435-1.22,1.611-3.374,0.391-4.811C104.909,82.818,101.456,79.478,97.48,76.223z"/>
		</g>
	</g>
</g>
<g>
</g>
<g>
</g>
<g>
</g>
<g>
</g>
<g>
</g>
<g>
</g>
<g>
</g>
<g>
</g>
<g>
</g>
<g>
</g>
<g>
</g>
<g>
</g>
<g>
</g>
<g>
</g>
<g>
</g>
</svg>
