<?xml version="1.0" encoding="iso-8859-1"?>
<!-- Generator: Adobe Illustrator 19.0.0, SVG Export Plug-In . SVG Version: 6.00 Build 0)  -->
<svg version="1.1" id="Capa_1" xmlns="http://www.w3.org/2000/svg" xmlns:xlink="http://www.w3.org/1999/xlink" x="0px" y="0px"
	 viewBox="0 0 512.002 512.002" style="enable-background:new 0 0 512.002 512.002;" xml:space="preserve">
<g>
	<g>
		<path d="M316.003,0h-120c-4.142,0-7.5,3.358-7.5,7.5v30c0,4.142,3.358,7.5,7.5,7.5c4.142,0,7.5-3.358,7.5-7.5V15h105v109.394
			l-7.197-7.197c-2.929-2.929-7.678-2.929-10.606,0l-14.697,14.697l-14.697-14.697c-2.929-2.929-7.678-2.929-10.606,0
			l-14.697,14.697l-14.697-14.697c-2.929-2.929-7.678-2.929-10.606,0l-7.197,7.197V67.5c0-4.142-3.358-7.5-7.5-7.5
			c-4.142,0-7.5,3.358-7.5,7.5v75c-0.001,3.034,1.826,5.768,4.629,6.929c2.803,1.162,6.029,0.52,8.173-1.626l14.697-14.697
			l14.697,14.697c2.929,2.929,7.678,2.929,10.606,0l14.697-14.697l14.697,14.697c2.929,2.929,7.678,2.929,10.606,0l14.697-14.697
			l14.697,14.697c1.435,1.435,3.353,2.197,5.305,2.197c0.966,0,1.941-0.187,2.869-0.571c2.803-1.161,4.63-3.896,4.63-6.929V7.5
			C323.503,3.358,320.145,0,316.003,0z"/>
	</g>
</g>
<g>
	<g>
		<path d="M308.303,189.243C306.686,175.61,295.063,165,281.002,165h-50c-14.061,0-25.684,10.61-27.301,24.243
			c-29.165,30.191-45.199,69.809-45.199,111.896V337.5c0,4.142,3.358,7.5,7.5,7.5c4.142,0,7.5-3.358,7.5-7.5v-36.361
			c0-32.497,10.545-63.37,30-88.728v47.348c-9.693,11.989-15,26.935-15,42.406V352.5c0,4.142,3.358,7.5,7.5,7.5h22.5v129.094
			l-24.872,8.291c-3.93,1.31-6.053,5.557-4.744,9.487c1.048,3.143,3.974,5.13,7.114,5.13c0.786,0,1.586-0.125,2.373-0.387l30-10
			c3.063-1.021,5.128-3.887,5.128-7.115V360h45v134.5c0,3.228,2.066,6.094,5.128,7.115l30,10c0.787,0.262,1.586,0.387,2.373,0.387
			c3.14,0,6.066-1.988,7.114-5.13c1.31-3.93-0.814-8.177-4.744-9.487l-24.872-8.291V360H316c4.142,0,7.5-3.358,7.5-7.5v-50.335
			c0-15.471-5.307-30.417-15-42.406v-47.348c19.455,25.358,30,56.23,30,88.728V337.5c0,4.142,3.358,7.5,7.5,7.5
			c4.142,0,7.5-3.358,7.5-7.5v-36.361C353.501,259.052,337.467,219.434,308.303,189.243z M218.502,192.502
			c0.001-6.895,5.608-12.502,12.5-12.502h50c6.892,0,12.499,5.607,12.5,12.499c0,0.004,0,62.501,0,62.501h-75V192.502z
			 M308.503,302.165V345h-0.001h-105v-42.835c0-11.687,3.905-22.982,11.039-32.165h82.923
			C304.597,279.183,308.503,290.478,308.503,302.165z"/>
	</g>
</g>
<g>
	<g>
		<path d="M241.002,60h-15c-4.142,0-7.5,3.358-7.5,7.5c0,4.142,3.358,7.5,7.5,7.5h15c4.142,0,7.5-3.358,7.5-7.5
			C248.502,63.358,245.144,60,241.002,60z"/>
	</g>
</g>
<g>
	<g>
		<path d="M286.002,60h-15c-4.142,0-7.5,3.358-7.5,7.5c0,4.142,3.358,7.5,7.5,7.5h15c4.142,0,7.5-3.358,7.5-7.5
			C293.502,63.358,290.144,60,286.002,60z"/>
	</g>
</g>
<g>
</g>
<g>
</g>
<g>
</g>
<g>
</g>
<g>
</g>
<g>
</g>
<g>
</g>
<g>
</g>
<g>
</g>
<g>
</g>
<g>
</g>
<g>
</g>
<g>
</g>
<g>
</g>
<g>
</g>
</svg>
